<svg width="32" height="32" viewBox="0 0 32 32" fill="none" xmlns="http://www.w3.org/2000/svg">
  <path d="M12 3h8v2h-2v8l8 12a3 3 0 01-2.5 4.5H8.5A3 3 0 016 25l8-12V5h-2V3z" fill="#1E3A5F" stroke="#60A5FA" stroke-width="1.2" stroke-linecap="round" stroke-linejoin="round"/>
  <path d="M9.5 28a3 3 0 01-2.5-4.5L12 16c.8-1.2 1.5-2 3-2h2c1.5 0 2.2.8 3 2l5 7.5A3 3 0 0122.5 28H9.5z" fill="url(#fg)"/>
  <circle cx="13" cy="23" r="1.2" fill="#93C5FD" opacity="0.7">
    <animate attributeName="cy" values="23;18;14" dur="2s" repeatCount="indefinite"/>
    <animate attributeName="opacity" values="0.7;0.3;0" dur="2s" repeatCount="indefinite"/>
  </circle>
  <circle cx="18" cy="25" r="0.9" fill="#A78BFA" opacity="0.6">
    <animate attributeName="cy" values="25;19;15" dur="2.3s" begin="0.4s" repeatCount="indefinite"/>
    <animate attributeName="opacity" values="0.6;0.3;0" dur="2.3s" begin="0.4s" repeatCount="indefinite"/>
  </circle>
  <defs>
    <linearGradient id="fg" x1="9" y1="15" x2="23" y2="28" gradientUnits="userSpaceOnUse">
      <stop offset="0%" stop-color="#3B82F6"/>
      <stop offset="50%" stop-color="#6366F1"/>
      <stop offset="100%" stop-color="#8B5CF6"/>
    </linearGradient>
  </defs>
</svg>
